<svg width="280" height="280" viewBox="0 0 280 280" fill="none" xmlns="http://www.w3.org/2000/svg">
<path d="M27.5 57.4742C27.5 54.2794 31.0606 52.3738 33.7188 54.146L70.7188 78.8133C71.8316 79.5552 72.5 80.8041 72.5 82.1415V137.86C72.5 139.197 71.8316 140.446 70.7188 141.188L33.7188 165.854C31.0605 167.626 27.5 165.721 27.5 162.526V57.4742Z" fill="#12B886"/>
<path d="M160.719 63.813C161.832 64.5548 162.5 65.8038 162.5 67.1412V152.86C162.5 154.197 161.832 155.446 160.719 156.188L119.281 183.813C118.168 184.555 117.5 185.804 117.5 187.141V197.861C117.5 199.198 116.832 200.447 115.719 201.189L78.7188 225.856C76.0606 227.628 72.5 225.722 72.5 222.527V187.142C72.5 185.805 73.1684 184.556 74.2812 183.814L115.719 156.189C116.832 155.447 117.5 154.198 117.5 152.861V42.4745C117.5 39.2797 121.061 37.3742 123.719 39.1463L160.719 63.813Z" fill="#1C64FD"/>
<path d="M250.956 53.7995C251.93 54.5573 252.5 55.7225 252.5 56.9569V163.044C252.5 164.279 251.93 165.444 250.955 166.202L209.57 198.388C208.577 199.161 208.005 200.355 208.026 201.612L208.463 227.817C208.486 229.178 207.815 230.457 206.683 231.212L169.596 255.936C166.963 257.691 163.43 255.838 163.378 252.674L162.536 202.184C162.514 200.823 163.184 199.544 164.317 198.789L205.719 171.187C206.831 170.445 207.5 169.196 207.5 167.859V28.1783C207.5 24.8497 211.328 22.9773 213.956 25.0209L250.956 53.7995Z" fill="#1CB2FD"/>
<path d="M207.501 200L209.545 198.409C208.568 199.182 208.006 200.366 208.027 201.613L208.464 227.817C208.487 229.178 207.816 230.457 206.683 231.212L169.596 255.937C166.963 257.691 163.431 255.839 163.378 252.675L162.537 202.185C162.514 200.824 163.186 199.545 164.318 198.79L205.719 171.188C206.832 170.446 207.501 169.197 207.501 167.859V200ZM250.957 166.202L245.148 170.72L250.963 166.195C250.961 166.197 250.959 166.2 250.957 166.202Z" fill="url(#paint0_linear_24763_26732)"/>
<path d="M117.5 185L160.719 156.188V156.188L119.281 183.812C118.168 184.554 117.5 185.803 117.5 187.141V197.861C117.5 199.199 116.832 200.448 115.719 201.189L78.7188 225.855C76.0606 227.627 72.5002 225.722 72.5 222.527V187.143C72.5 185.805 73.1685 184.556 74.2812 183.814L115.719 156.188C116.831 155.447 117.5 154.198 117.5 152.86V185Z" fill="url(#paint1_linear_24763_26732)"/>
<defs>
<linearGradient id="paint0_linear_24763_26732" x1="143.143" y1="231.784" x2="250.963" y2="231.784" gradientUnits="userSpaceOnUse">
<stop stop-color="#1CB2FD"/>
<stop offset="1" stop-color="#0D8CD6"/>
</linearGradient>
<linearGradient id="paint1_linear_24763_26732" x1="72.5" y1="200.044" x2="160.719" y2="200.044" gradientUnits="userSpaceOnUse">
<stop stop-color="#1C64FD"/>
<stop offset="1" stop-color="#164ED1"/>
</linearGradient>
</defs>
</svg>
